<svg width="45" height="29" viewBox="0 0 45 29" fill="none" xmlns="http://www.w3.org/2000/svg">
<path fill-rule="evenodd" clip-rule="evenodd" d="M40.2083 16.8777L45 21.2542C43.5092 24.502 40.7513 26.5784 39.1327 27.2705L34.4688 22.6065L32.7863 20.2213L34.4475 24.7788L31.5937 27.6646C29.8048 26.9298 28.4737 25.2579 28.0372 24.1293L30.9229 21.2435L31.7534 20.2107L12.3521 28.3353L0 15.9832C3.9825 7.1344 10.8613 2.80054 15.0248 0.968994L27.3876 13.3318L31.7641 19.5931L27.4622 7.64551L35.1077 0C41.2838 2.84317 43.7329 8.12475 44.5314 9.83909L36.7688 16.9522L32.797 19.5931L40.2083 16.8777Z" fill="#FFFFFF"/>
</svg>
