<svg width="300" height="300" viewBox="0 0 300 300" fill="none" xmlns="http://www.w3.org/2000/svg">
<rect width="300" height="300" fill="#FFFFFF"/>
<path fill-rule="evenodd" clip-rule="evenodd" d="M167.208 152.878L172 157.254C170.509 160.502 167.751 162.578 166.133 163.27L161.469 158.607L159.786 156.221L161.448 160.779L158.594 163.665C156.805 162.93 155.474 161.258 155.037 160.129L157.923 157.244L158.753 156.211L139.352 164.335L127 151.983C130.983 143.134 137.861 138.801 142.025 136.969L154.388 149.332L158.764 155.593L154.462 143.646L162.108 136C168.284 138.843 170.733 144.125 171.531 145.839L163.769 152.952L159.797 155.593L167.208 152.878Z" fill="#000000"/>
</svg>
