<svg width="46" height="46" viewBox="0 0 46 46" fill="none" xmlns="http://www.w3.org/2000/svg">
<path fill-rule="evenodd" clip-rule="evenodd" d="M41.1018 23.4696L46 27.9433C44.4761 31.2633 41.6569 33.3858 40.0023 34.0933L35.2348 29.3257L33.5149 26.8875L35.213 31.5462L32.2958 34.4961C30.4672 33.745 29.1065 32.036 28.6602 30.8823L31.6101 27.9324L32.459 26.8766L12.6266 35.1818L0 22.5552C4.071 13.5097 11.1027 9.07957 15.3587 7.20732L27.9962 19.8448L32.47 26.2453L28.0724 14.0322L35.8879 6.2168C42.2012 9.12315 44.7047 14.5221 45.521 16.2745L37.5859 23.5457L33.5258 26.2453L41.1018 23.4696Z" fill="#32373C"/>
</svg>
